<svg xmlns="http://www.w3.org/2000/svg" xmlns:svg="http://www.w3.org/2000/svg" id="svg4817" width="210mm" height="297mm" version="1.1" viewBox="0 0 744.094 1052.362"><metadata id="metadata4822"/><g id="layer1"><g id="g6174"><g id="g6866"><g id="g6872" transform="translate(-144.24978,-251.73001)"><path style="color:#000;display:inline;overflow:visible;visibility:visible;opacity:1;fill:#191919;fill-opacity:1;fill-rule:nonzero;stroke:none;stroke-width:3.98473239;stroke-linecap:butt;stroke-linejoin:round;stroke-miterlimit:4;stroke-dasharray:none;stroke-dashoffset:0;stroke-opacity:.98039216;marker:none;enable-background:accumulate" id="path6822" d="m 293.67969,275.94922 a 150,45.892853 0 0 0 -123.07031,45.12695 150,45.892853 0 0 0 112.5996,44.38477 55.55584,55.55584 0 0 1 -18.15429,-40.99219 55.55584,55.55584 0 0 1 28.625,-48.51953 z m 53.98437,0.0215 a 55.55584,55.55584 0 0 1 28.50196,48.49805 55.55584,55.55584 0 0 1 -18.17383,41.01563 150,45.892853 0 0 0 112.61719,-44.40821 150,45.892853 0 0 0 -122.94532,-45.10547 z"/><g style="fill:#323232;fill-opacity:1" id="g6862"><circle id="path6839" cx="320.61" cy="324.469" r="50" style="color:#000;display:inline;overflow:visible;visibility:visible;opacity:1;fill:#323232;fill-opacity:1;fill-rule:nonzero;stroke:none;stroke-width:2;stroke-linecap:butt;stroke-linejoin:round;stroke-miterlimit:4;stroke-dasharray:none;stroke-dashoffset:0;stroke-opacity:1;marker:none;enable-background:accumulate"/><path id="path6849" d="m 320.60989,393.93288 c -3.66276,0 -20.14518,-28.5484 -18.3138,-31.72044 1.83138,-3.17204 34.79623,-3.17204 36.62761,0 1.83138,3.17204 -14.65104,31.72044 -18.31381,31.72044 z" style="color:#000;display:inline;overflow:visible;visibility:visible;opacity:1;fill:#323232;fill-opacity:1;fill-rule:nonzero;stroke:none;stroke-width:2;stroke-linecap:butt;stroke-linejoin:round;stroke-miterlimit:4;stroke-dasharray:none;stroke-dashoffset:0;stroke-opacity:1;marker:none;enable-background:accumulate"/></g></g></g></g></g></svg>