<svg xmlns="http://www.w3.org/2000/svg" xmlns:svg="http://www.w3.org/2000/svg" id="svg5578" width="210mm" height="297mm" version="1.1" viewBox="0 0 744.094 1052.362"><metadata id="metadata5583"/><g id="layer1"><path style="fill:none;fill-rule:evenodd;stroke:#000;stroke-width:1.44090998;stroke-linecap:butt;stroke-linejoin:miter;stroke-miterlimit:4;stroke-dasharray:none;stroke-opacity:1" id="path5562" d="m 64.285709,75.80703 c 0,0 14.409099,0 14.409099,36.02274 l 0,215.77627 417.863882,0 0,-222.98082 c 0,-28.81819 14.4091,-28.81819 14.4091,-28.81819"/><rect style="color:#000;display:inline;overflow:visible;visibility:visible;opacity:1;fill:#000;fill-opacity:1;fill-rule:nonzero;stroke:none;stroke-width:2;stroke-linecap:butt;stroke-linejoin:round;stroke-miterlimit:4;stroke-dasharray:none;stroke-dashoffset:0;stroke-opacity:1;marker:none;enable-background:accumulate" id="rect5560" width="446.682" height="14.409" x="64.286" y="61.398"/><rect style="color:#000;display:inline;overflow:visible;visibility:visible;opacity:1;fill:#000;fill-opacity:1;fill-rule:nonzero;stroke:none;stroke-width:2;stroke-linecap:butt;stroke-linejoin:round;stroke-miterlimit:4;stroke-dasharray:none;stroke-dashoffset:0;stroke-opacity:1;marker:none;enable-background:accumulate" id="rect6134" width="468.711" height="6.566" x="53.271" y="65.319"/><path style="color:#000;display:inline;overflow:visible;visibility:visible;opacity:1;fill:#000;fill-opacity:1;fill-rule:nonzero;stroke:none;stroke-width:2;stroke-linecap:butt;stroke-linejoin:round;stroke-miterlimit:4;stroke-dasharray:none;stroke-dashoffset:0;stroke-opacity:1;marker:none;enable-background:accumulate" id="path6136" d="m 82.486829,19.492164 c 3.277793,1.892435 -24.447008,44.442312 -24.447008,48.227181 10e-7,3.784869 27.724806,46.334745 24.447013,48.227175 -3.277793,1.89244 -26.264667,-43.392883 -29.54246,-45.285317 -3.277793,-1.892434 -53.9894674,0.843014 -53.9894675,-2.941855 -2e-7,-3.784869 50.7116745,-1.049426 53.9894675,-2.941861 3.277793,-1.892434 26.264662,-47.177757 29.542455,-45.285323 z" transform="matrix(0.8660254,0.5,-0.5,0.8660254,42.546472,-16.325391)"/><path id="path6138" d="m 82.486829,19.492164 c 3.277793,1.892435 -24.447008,44.442312 -24.447008,48.227181 10e-7,3.784869 27.724806,46.334745 24.447013,48.227175 -3.277793,1.89244 -26.264667,-43.392883 -29.54246,-45.285317 -3.277793,-1.892434 -53.9894674,0.843014 -53.9894675,-2.941855 -2e-7,-3.784869 50.7116745,-1.049426 53.9894675,-2.941861 3.277793,-1.892434 26.264662,-47.177757 29.542455,-45.285323 z" transform="matrix(0.8660254,0.5,-0.5,0.8660254,505.40362,-16.325391)" style="color:#000;display:inline;overflow:visible;visibility:visible;opacity:1;fill:#000;fill-opacity:1;fill-rule:nonzero;stroke:none;stroke-width:2;stroke-linecap:butt;stroke-linejoin:round;stroke-miterlimit:4;stroke-dasharray:none;stroke-dashoffset:0;stroke-opacity:1;marker:none;enable-background:accumulate"/></g></svg>