<svg xmlns="http://www.w3.org/2000/svg" xmlns:svg="http://www.w3.org/2000/svg" xmlns:xlink="http://www.w3.org/1999/xlink" id="svg2" width="22.153" height="206.661" version="1.1" viewBox="0 0 22.153 206.661"><defs id="defs4"><linearGradient id="linearGradient4172"><stop style="stop-color:#a0a0a0;stop-opacity:1" id="stop4174" offset="0"/><stop style="stop-color:#a0a0a0;stop-opacity:0" id="stop4176" offset="1"/></linearGradient><radialGradient id="radialGradient4190" cx="77.317" cy="78.03" r="71.005" fx="77.317" fy="78.03" gradientTransform="matrix(1,0,0,1.0060909,241.05642,361.88691)" gradientUnits="userSpaceOnUse" xlink:href="#linearGradient4172"/></defs><metadata id="metadata7"/><g id="layer1" transform="translate(-312.95916,-334.27714)"><g id="g4515"><g id="g4271" transform="matrix(0.70710678,-0.70710678,0.70710678,0.70710678,-216.8875,351.66629)"><rect style="opacity:1;fill:none;fill-opacity:1;fill-rule:nonzero;stroke:#000;stroke-width:.99999785;stroke-linecap:round;stroke-miterlimit:4;stroke-dasharray:none;stroke-opacity:1" id="rect4145" width="205.653" height="4.807" x="-187.938" y="530.376" transform="matrix(0.70600487,-0.70820697,0.70600487,0.70820697,0,0)"/><path style="color:#000;display:inline;overflow:visible;visibility:visible;fill:none;fill-rule:evenodd;stroke:#000;stroke-width:1;stroke-linecap:butt;stroke-linejoin:miter;stroke-miterlimit:4;stroke-dasharray:none;stroke-dashoffset:0;stroke-opacity:1;marker:none;enable-background:accumulate" id="path4293" d="m 390.34762,366.47444 -2.21123,24.43028"/><path style="color:#000;display:inline;overflow:visible;visibility:visible;fill:none;fill-rule:evenodd;stroke:#000;stroke-width:1;stroke-linecap:butt;stroke-linejoin:miter;stroke-miterlimit:4;stroke-dasharray:none;stroke-dashoffset:0;stroke-opacity:1;marker:none;enable-background:accumulate" id="path4295" d="M 388.13639,390.90472 267.37357,512.5646"/><path style="fill:url(#radialGradient4190);fill-opacity:1;stroke:none;stroke-width:1px;stroke-linecap:butt;stroke-linejoin:miter;stroke-opacity:1" id="path4170" d="m 255.13747,511.67922 c -4.83857,-0.10225 -7.7582,-0.27692 -7.76954,-0.46482 -0.033,-0.54705 141.93887,-142.76892 142.00797,-142.258 0.0361,0.26699 -0.37024,5.23929 -0.90301,11.04957 l -0.96867,10.56413 -60.20067,60.62316 -60.20067,60.62315 -2.10702,0.0133 c -1.15886,0.007 -5.59514,-0.0604 -9.85839,-0.1505 l 0,10e-6 z"/><path style="color:#000;display:inline;overflow:visible;visibility:visible;fill:none;fill-rule:evenodd;stroke:#000;stroke-width:1;stroke-linecap:butt;stroke-linejoin:miter;stroke-miterlimit:4;stroke-dasharray:none;stroke-dashoffset:0;stroke-opacity:1;marker:none;enable-background:accumulate" id="path4269" d="m 245.15589,512.11904 21.94699,-0.30263"/></g><path id="path4513" d="M 1.4511053,172.64796 C 1.3410734,154.6442 1.2509786,108.65841 1.2508947,70.457327 l -1.525e-4,-69.4565225 1.6059226,0 1.6059227,0 0.2000974,26.2370715 C 4.7727384,41.668265 4.8627823,87.654051 4.8627823,129.42851 l 0,75.95357 -1.6058095,0 -1.6058096,0 -0.2000579,-32.73412 z" transform="translate(312.95916,334.27714)" style="fill:#fff;stroke:none;stroke-width:1px;stroke-linecap:butt;stroke-linejoin:miter;stroke-opacity:1"/></g></g></svg>