<svg xmlns="http://www.w3.org/2000/svg" xmlns:svg="http://www.w3.org/2000/svg" xmlns:xlink="http://www.w3.org/1999/xlink" id="svg2" width="149.997" height="300" version="1.1" viewBox="0 0 149.997 300"><defs id="defs4"><linearGradient id="linearGradient4180"><stop style="stop-color:#a0a0a0;stop-opacity:1" id="stop4182" offset="0"/><stop style="stop-color:#a0a0a0;stop-opacity:0" id="stop4184" offset="1"/></linearGradient><linearGradient id="linearGradient4172"><stop style="stop-color:#a0a0a0;stop-opacity:1" id="stop4174" offset="0"/><stop style="stop-color:#a0a0a0;stop-opacity:0" id="stop4176" offset="1"/></linearGradient><radialGradient id="radialGradient4188" cx="76.798" cy="222.048" r="71.52" fx="76.798" fy="222.048" gradientTransform="matrix(1,0,0,1.0015327,0,-0.34034288)" gradientUnits="userSpaceOnUse" xlink:href="#linearGradient4180"/><radialGradient id="radialGradient4190" cx="77.317" cy="78.03" r="71.005" fx="77.317" fy="78.03" gradientTransform="matrix(1,0,0,1.0060909,0,-0.47527586)" gradientUnits="userSpaceOnUse" xlink:href="#linearGradient4172"/></defs><metadata id="metadata7"/><g id="layer1" transform="translate(-241.05642,-362.36219)"><g id="g4615"><g id="g4211"><rect style="opacity:1;fill:none;fill-opacity:1;fill-rule:nonzero;stroke:#000;stroke-width:.99999785;stroke-linecap:round;stroke-miterlimit:4;stroke-dasharray:none;stroke-opacity:1" id="rect4145" width="205.653" height="4.807" x="-187.938" y="530.376" transform="matrix(0.70600487,-0.70820697,0.70600487,0.70820697,0,0)"/><rect style="opacity:1;fill:none;fill-opacity:1;fill-rule:nonzero;stroke:#000;stroke-width:.99999785;stroke-linecap:round;stroke-miterlimit:4;stroke-dasharray:none;stroke-opacity:1" id="rect4145-6" width="205.653" height="4.807" x="-741.178" y="-193.088" transform="matrix(-0.70600487,-0.70820697,0.70600487,-0.70820697,0,0)"/><path style="color:#000;display:inline;overflow:visible;visibility:visible;fill:none;fill-rule:evenodd;stroke:#000;stroke-width:1;stroke-linecap:butt;stroke-linejoin:miter;stroke-miterlimit:4;stroke-dasharray:none;stroke-dashoffset:0;stroke-opacity:1;marker:none;enable-background:accumulate" id="path4293" d="m 390.34762,366.47444 -2.21123,24.43028"/><path style="color:#000;display:inline;overflow:visible;visibility:visible;fill:none;fill-rule:evenodd;stroke:#000;stroke-width:1;stroke-linecap:butt;stroke-linejoin:miter;stroke-miterlimit:4;stroke-dasharray:none;stroke-dashoffset:0;stroke-opacity:1;marker:none;enable-background:accumulate" id="path4295" d="M 388.13639,390.90472 267.37357,512.5646"/><path style="color:#000;display:inline;overflow:visible;visibility:visible;fill:none;fill-rule:evenodd;stroke:#000;stroke-width:1;stroke-linecap:butt;stroke-linejoin:miter;stroke-miterlimit:4;stroke-dasharray:none;stroke-dashoffset:0;stroke-opacity:1;marker:none;enable-background:accumulate" id="path4297" d="M 390.34761,658.24993 388.1364,633.81961"/><path style="color:#000;display:inline;overflow:visible;visibility:visible;fill:none;fill-rule:evenodd;stroke:#000;stroke-width:1;stroke-linecap:butt;stroke-linejoin:miter;stroke-miterlimit:4;stroke-dasharray:none;stroke-dashoffset:0;stroke-opacity:1;marker:none;enable-background:accumulate" id="path4299" d="M 388.1364,633.81961 267.37357,512.5646 245.15589,512.11904"/><path style="fill:url(#radialGradient4188);stroke:none;stroke-width:1px;stroke-linecap:butt;stroke-linejoin:miter;stroke-opacity:1;fill-opacity:1" id="path4168" d="m 76.736673,222.10541 -71.459441,-71.68746 10.328685,0.21846 10.328685,0.21847 43.387449,43.54716 c 23.863097,23.95094 50.992559,51.20017 60.287689,60.55385 l 16.90024,17.00669 0.95806,10.80015 c 0.52693,5.94008 0.90632,10.8519 0.84307,10.91514 -0.0633,0.0633 -32.27175,-32.14436 -71.574437,-71.57246 z" transform="translate(241.05642,362.36219)"/><path style="fill:url(#radialGradient4190);stroke:none;stroke-width:1px;stroke-linecap:butt;stroke-linejoin:miter;stroke-opacity:1;fill-opacity:1" id="path4170" d="M 14.081049,149.31703 C 9.2424779,149.21478 6.3228524,149.04011 6.3115077,148.85221 6.2784772,148.30516 148.25038,6.0832944 148.31948,6.5942119 148.35559,6.861196 147.94924,11.8335 147.41647,17.643776 l -0.96867,10.564138 -60.200668,60.623152 -60.200669,60.623154 -2.107024,0.0133 c -1.158862,0.007 -5.595138,-0.0604 -9.85839,-0.1505 l 0,10e-6 z" transform="translate(241.05642,362.36219)"/></g><path id="path4611" d="M 2.8949878,147.53493 1.7167572,146.31749 73.606533,74.201521 C 113.14591,34.537741 145.62356,2.0069117 145.7791,1.9107874 c 0.15553,-0.096124 0.80015,0.350286 1.43249,0.9920227 l 1.1497,1.166794 L 76.217255,76.410987 4.0732185,148.75237 2.8949878,147.53493 Z" transform="translate(241.05642,362.36219)" style="fill:#fff;stroke:none;stroke-width:1px;stroke-linecap:butt;stroke-linejoin:miter;stroke-opacity:1"/><path id="path4613" d="M 86.82101,239.05755 C 54.357378,206.49646 21.943677,173.93761 14.790565,166.70457 l -13.0056569,-13.15099 1.0942128,-1.21117 1.0942128,-1.21116 57.9775243,58.15814 c 31.887639,31.98698 64.348792,64.55819 72.135892,72.38048 l 14.15836,14.22233 -1.19965,1.18368 -1.19967,1.18367 -59.02478,-59.202 z" transform="translate(241.05642,362.36219)" style="fill:#fff;stroke:none;stroke-width:1px;stroke-linecap:butt;stroke-linejoin:miter;stroke-opacity:1"/></g></g></svg>