<svg xmlns="http://www.w3.org/2000/svg" xmlns:svg="http://www.w3.org/2000/svg" id="svg2" width="22.153" height="206.661" version="1.1" viewBox="0 0 22.153 206.661"><metadata id="metadata7"/><g id="layer1" transform="translate(-312.95916,-334.27714)"><g id="g4430"><g id="g4321"><rect style="opacity:1;fill:none;fill-opacity:1;fill-rule:nonzero;stroke:#000;stroke-width:.99999785;stroke-linecap:round;stroke-miterlimit:4;stroke-dasharray:none;stroke-opacity:1" id="rect4145" width="205.653" height="4.807" x="-539.944" y="312.94" transform="matrix(-0.00155712,-0.99999879,0.99999879,0.00155712,0,0)"/><path style="color:#000;display:inline;overflow:visible;visibility:visible;fill:none;fill-rule:evenodd;stroke:#000;stroke-width:1;stroke-linecap:butt;stroke-linejoin:miter;stroke-miterlimit:4;stroke-dasharray:none;stroke-dashoffset:0;stroke-opacity:1;marker:none;enable-background:accumulate" id="path4293" d="m 318.26651,334.7854 15.71124,18.83839"/><path style="color:#000;display:inline;overflow:visible;visibility:visible;fill:none;fill-rule:evenodd;stroke:#000;stroke-width:1;stroke-linecap:butt;stroke-linejoin:miter;stroke-miterlimit:4;stroke-dasharray:none;stroke-dashoffset:0;stroke-opacity:1;marker:none;enable-background:accumulate" id="path4295" d="m 333.97775,353.62379 0.63432,171.41874"/><path style="fill:none;fill-opacity:1;stroke:none;stroke-width:1px;stroke-linecap:butt;stroke-linejoin:miter;stroke-opacity:1" id="path4170" d="m 325.33378,533.0687 c -3.49369,3.34908 -5.68169,5.29006 -5.82257,5.16522 -0.41016,-0.36349 -0.58694,-201.31881 -0.1768,-201.0064 0.21432,0.16327 3.44294,3.96654 7.1747,8.45175 l 6.78502,8.15492 0.29874,85.43535 0.29874,85.43535 -1.48048,1.49929 c -0.81449,0.82439 -3.99907,3.91365 -7.07736,6.86451 l 10e-6,1e-5 z"/><path style="color:#000;display:inline;overflow:visible;visibility:visible;fill:none;fill-rule:evenodd;stroke:#000;stroke-width:1;stroke-linecap:butt;stroke-linejoin:miter;stroke-miterlimit:4;stroke-dasharray:none;stroke-dashoffset:0;stroke-opacity:1;marker:none;enable-background:accumulate" id="path4269" d="m 318.58674,540.43774 15.30487,-15.73285"/></g><path id="path4426" d="M 6.2363462,168.35867 C 6.1223654,148.57522 6.0714509,103.2054 6.1232028,67.536845 l 0.094095,-64.8519207 7.1082406,8.5319427 7.10824,8.531943 0.192965,76.186198 c 0.10613,41.902412 0.277965,80.302802 0.381856,85.334202 0.154976,7.50554 0.118031,9.1042 -0.205777,8.90408 -0.276449,-0.17086 -2.486127,1.91264 -7.376952,6.95568 l -6.9822859,7.1996 -0.2072379,-35.9699 z" transform="translate(312.95916,334.27714)" style="fill:#fff;stroke:none;stroke-width:1px;stroke-linecap:butt;stroke-linejoin:miter;stroke-opacity:1"/><path id="path4428" d="M 1.4511053,172.64796 C 1.3410734,154.6442 1.2509786,108.65841 1.2508947,70.457327 l -1.525e-4,-69.4565225 1.6059226,0 1.6059227,0 0.2000974,26.2370715 C 4.7727384,41.668265 4.8627823,87.654051 4.8627823,129.42851 l 0,75.95357 -1.6058095,0 -1.6058096,0 -0.2000579,-32.73412 z" transform="translate(312.95916,334.27714)" style="fill:#fff;stroke:none;stroke-width:1px;stroke-linecap:butt;stroke-linejoin:miter;stroke-opacity:1"/></g></g></svg>