<svg xmlns="http://www.w3.org/2000/svg" xmlns:osb="http://www.openswatchbook.org/uri/2009/osb" xmlns:svg="http://www.w3.org/2000/svg" id="svg21" width="210mm" height="297mm" version="1.1" viewBox="0 0 210 297"><defs id="defs15"><linearGradient id="linearGradient2881" osb:paint="solid"><stop id="stop2879" offset="0" style="stop-color:#000;stop-opacity:1"/></linearGradient><linearGradient id="linearGradient933" osb:paint="solid"><stop id="stop931" offset="0" style="stop-color:#000;stop-opacity:1"/></linearGradient></defs><metadata id="metadata18"/><g id="layer1"><g id="g3019"><rect id="rect2959-3" width="36.323" height="19.859" x="41.707" y="66.029" style="opacity:1;fill:#000;fill-opacity:1;fill-rule:evenodd;stroke:#000;stroke-width:.172514;stroke-miterlimit:4;stroke-dasharray:none;stroke-opacity:1"/><path style="fill:#0a0000;fill-opacity:1;fill-rule:evenodd;stroke:#000;stroke-width:.264583px;stroke-linecap:butt;stroke-linejoin:miter;stroke-opacity:1" id="path2976" d="M 89.470034,-89.531181 A 13.657473,17.591871 0 0 1 75.860115,-71.939417 13.657473,17.591871 0 0 1 62.15542,-89.408675" transform="matrix(-3.6055152e-4,0.99999994,-0.99999995,-3.0160269e-4,0,0)"/></g><g id="g3015"><rect style="opacity:1;fill:#fff;fill-opacity:1;fill-rule:evenodd;stroke:#000;stroke-width:.172514;stroke-miterlimit:4;stroke-dasharray:none;stroke-opacity:1" id="rect2959-3-8" width="36.323" height="19.859" x="42.751" y="108.803"/><path id="path2976-6" d="M 132.24422,-90.590302 A 13.657473,17.591871 0 0 1 118.6343,-72.998537 13.657473,17.591871 0 0 1 104.9296,-90.467795 Z" transform="matrix(-3.6055036e-4,0.99999994,-0.99999995,-3.0160383e-4,0,0)" style="fill:#fff;fill-opacity:1;fill-rule:evenodd;stroke:#000;stroke-width:.264583px;stroke-linecap:butt;stroke-linejoin:miter;stroke-opacity:1"/></g><rect id="rect3011" width="11.974" height="19.304" x="67.913" y="109.039" ry="0" style="opacity:1;fill:#fff;fill-opacity:1;fill-rule:evenodd;stroke:none;stroke-width:.2;stroke-miterlimit:4;stroke-dasharray:none;stroke-opacity:1"/></g></svg>